<svg width="28" height="30" viewBox="0 0 28 30" fill="none" xmlns="http://www.w3.org/2000/svg">
<path d="M10.4719 27.0001C11.4121 27.8299 12.6471 28.3334 13.9997 28.3334C15.3523 28.3334 16.5873 27.8299 17.5275 27.0001M21.9997 9.66675C21.9997 7.54502 21.1568 5.51018 19.6566 4.00989C18.1563 2.5096 16.1214 1.66675 13.9997 1.66675C11.878 1.66675 9.84314 2.5096 8.34284 4.00989C6.84255 5.51018 5.9997 7.54502 5.9997 9.66675C5.9997 13.787 4.96033 16.608 3.79925 18.474C2.81987 20.0479 2.33018 20.8349 2.34813 21.0544C2.36801 21.2975 2.41951 21.3902 2.6154 21.5355C2.79231 21.6667 3.58982 21.6667 5.18484 21.6667H22.8146C24.4096 21.6667 25.2071 21.6667 25.384 21.5355C25.5799 21.3902 25.6314 21.2975 25.6513 21.0544C25.6692 20.8349 25.1795 20.0479 24.2001 18.474C23.0391 16.608 21.9997 13.787 21.9997 9.66675Z" stroke="#1A1A1A" stroke-width="3" stroke-linecap="round" stroke-linejoin="round"/>
</svg>
