<svg width="39" height="46" viewBox="0 0 39 46" fill="none" xmlns="http://www.w3.org/2000/svg">
<path d="M5.61881 34.7718C2.93345 34.7718 0.75 32.6032 0.75 29.9369C0.75 27.2707 2.93345 25.1021 5.61881 25.1021H33.2527C35.938 25.1021 38.1215 27.2707 38.1215 29.9369C38.1215 32.6032 35.938 34.7718 33.2527 34.7718H5.61881Z" fill="#EDC391"/>
<path d="M19.4374 45.25C11.5938 45.25 3.14941 39.0554 3.14941 25.4547C3.14941 19.1348 4.93354 13.3124 8.17209 9.05858C11.1981 5.08204 15.3049 2.80322 19.4374 2.80322C23.5698 2.80322 27.6766 5.08204 30.7027 9.05858C33.9412 13.3124 35.7254 19.1348 35.7254 25.4547C35.7254 31.6227 33.9705 36.7766 30.6477 40.3506C27.7133 43.5105 23.731 45.25 19.4374 45.25Z" fill="#F9DDBD"/>
<path d="M21.2946 31.8274C21.2433 31.8046 21.192 31.7932 21.1407 31.7856H17.7336C17.6823 31.7932 17.631 31.8046 17.5798 31.8274C17.272 31.9566 17.0998 32.2908 17.2464 32.6402C17.3929 32.9934 18.0707 33.9847 19.4372 33.9847C20.8036 33.9847 21.4814 32.9934 21.6279 32.6402C21.7745 32.287 21.6023 31.9566 21.2946 31.8274Z" fill="#DBA689"/>
<path d="M7.78046 24.7213C9.27151 22.5108 12.6969 22.4273 14.5506 24.1516C14.9097 24.4858 15.3749 24.9757 15.1405 25.5226C14.928 26.0202 14.4151 26.062 13.9974 25.8721C12.7189 25.291 11.6491 25.1239 10.3706 25.3631C10.0408 25.4239 9.72212 25.5226 9.4034 25.629C9.15062 25.7125 8.92348 25.8645 8.6707 25.9442C7.98196 26.1683 7.36649 25.3669 7.78046 24.7213Z" fill="#454140"/>
<path d="M30.1571 25.9213C28.9628 25.3212 28.1092 25.1313 26.8526 25.2946C26.2298 25.3744 25.629 25.5453 25.0502 25.7922C24.6509 25.9631 24.2076 26.1188 23.8705 25.7276C22.9876 24.7098 25.0868 23.521 25.7756 23.2513C27.0761 22.7424 28.5818 22.8677 29.7981 23.5514C30.3037 23.8362 30.8825 24.254 31.1463 24.8047C31.4613 25.4542 30.8166 26.2024 30.1571 25.9213Z" fill="#454140"/>
<path d="M11.4286 31.7957C12.7397 31.7957 13.8026 30.6547 13.8026 29.2472C13.8026 27.8397 12.7397 26.6987 11.4286 26.6987C10.1175 26.6987 9.05469 27.8397 9.05469 29.2472C9.05469 30.6547 10.1175 31.7957 11.4286 31.7957Z" fill="#312D2D"/>
<path d="M27.4462 31.7957C28.7573 31.7957 29.8202 30.6547 29.8202 29.2472C29.8202 27.8397 28.7573 26.6987 27.4462 26.6987C26.1351 26.6987 25.0723 27.8397 25.0723 29.2472C25.0723 30.6547 26.1351 31.7957 27.4462 31.7957Z" fill="#312D2D"/>
<path d="M23.4898 35.9445C21.9548 36.8902 16.9284 36.8902 15.3934 35.9445C14.5142 35.4013 13.613 36.2331 13.9793 37.0611C14.3383 37.8777 17.0823 39.7691 19.4563 39.7691C21.8266 39.7691 24.5376 37.8777 24.8966 37.0611C25.2593 36.2293 24.3727 35.4013 23.4898 35.9445Z" fill="#444444"/>
<path d="M34.0846 5.75715C31.8975 3.39477 29.8239 2.39589 29.6224 2.3693C27.0873 1.16533 23.8158 0.25 19.5771 0.25C0.948142 0.25 -0.345077 16.065 0.405943 22.9926C0.863882 27.2236 2.47583 29.248 3.42468 30.0949C3.42468 30.0949 3.53458 25.2828 4.51274 21.4088C5.28574 18.34 7.13581 16.065 7.13581 16.065C7.13581 16.065 10.4953 19.0996 16.7599 21.067C19.7786 22.0165 23.6509 21.538 23.6509 21.538L21.4785 17.5538C21.4785 17.5538 25.0247 20.2618 27.2375 20.7822C30.0694 21.4468 32.1466 21.162 32.1466 21.162L31.1062 16.9537C31.1062 16.9537 32.905 18.1843 34.2531 21.5342C35.6013 24.8878 35.2459 30.3114 35.2459 30.3114C36.1655 29.6278 38.1328 27.649 38.5284 22.9888C39.1732 15.3206 38.2867 10.7288 34.0846 5.75715Z" fill="#312D2D"/>
<path d="M29.6224 2.3693C27.0873 1.16533 23.8158 0.25 19.5771 0.25C0.948142 0.25 -0.345077 16.065 0.405943 22.9926C0.863882 27.2236 2.47583 29.248 3.42468 30.0949C3.42468 30.0949 3.53458 25.2828 4.51274 21.4088C5.28574 18.34 7.13581 16.065 7.13581 16.065C7.13581 16.065 10.4953 19.0996 16.7599 21.067C19.7786 22.0165 23.6509 21.538 23.6509 21.538L21.4785 17.5538C21.4785 17.5538 25.0247 20.2618 27.2375 20.7822C30.0694 21.4468 32.1466 21.162 32.1466 21.162L31.1062 16.9537C31.1062 16.9537 32.905 18.1843 34.2531 21.5342C35.6013 24.8878 35.2459 30.3114 35.2459 30.3114C36.1655 29.6278 38.1328 27.649 38.5284 22.9888C39.1732 15.3206 38.2867 10.7288 34.0846 5.75715C31.8975 3.39477 29.8239 2.39589 29.6224 2.3693Z" fill="url(#paint0_radial_429_75)"/>
<defs>
<radialGradient id="paint0_radial_429_75" cx="0" cy="0" r="1" gradientUnits="userSpaceOnUse" gradientTransform="translate(19.4835 19.0397) rotate(1.34853) scale(19.9856 19.3259)">
<stop offset="0.6985" stop-color="#454140" stop-opacity="0"/>
<stop offset="1" stop-color="#454140"/>
</radialGradient>
</defs>
</svg>
