<svg width="58" height="44" viewBox="0 0 58 44" fill="none" xmlns="http://www.w3.org/2000/svg">
<path d="M53.7278 35.2037L9.8318 40.0821C7.19584 40.375 4.79023 38.5362 4.48627 35.9961L1.38241 10.0604C1.07845 7.52006 2.98655 5.202 5.62251 4.90909L49.5185 0.030667C52.1546 -0.262243 54.5601 1.57652 54.864 4.11671L57.9679 30.0522C58.2718 32.5926 56.3637 34.9106 53.7278 35.2037Z" fill="#1A1A1A"/>
<path d="M47.8886 43.9999H4.714C2.12132 43.9999 0 41.9354 0 39.4122V13.6506C0 11.1275 2.12118 9.06299 4.714 9.06299H47.8887C50.4814 9.06299 52.6027 11.1273 52.6027 13.6506V39.4124C52.6026 41.9356 50.4814 43.9999 47.8886 43.9999Z" fill="#4A57BC"/>
<path d="M47.765 9.06299H25.624V43.9999H47.7649C50.4241 43.9999 52.5998 41.9354 52.5998 39.4123V13.6508C52.5999 11.1274 50.4244 9.06299 47.765 9.06299Z" fill="#333E96"/>
<path d="M52.6027 15.5317H0V23.2955H52.6027V15.5317Z" fill="#363434"/>
<path d="M52.5998 15.5312H25.624V23.295H52.5998V15.5312Z" fill="#1A1A1A"/>
<path d="M11.4631 40.109C14.8152 40.109 17.5326 37.2124 17.5326 33.6392C17.5326 30.0661 14.8152 27.1694 11.4631 27.1694C8.11098 27.1694 5.39355 30.0661 5.39355 33.6392C5.39355 37.2124 8.11098 40.109 11.4631 40.109Z" fill="white"/>
<path d="M11.4639 37.5274C14.0711 37.5274 16.1847 35.4998 16.1847 32.9986C16.1847 30.4974 14.0711 28.4697 11.4639 28.4697C8.85672 28.4697 6.74316 30.4974 6.74316 32.9986C6.74316 35.4998 8.85672 37.5274 11.4639 37.5274Z" fill="#F9DB6D"/>
<path d="M46.4711 30.7632H25.9082V32.3538H46.4711V30.7632Z" fill="#F9DB6D"/>
<path d="M46.4711 34.6885H25.9082V36.2791H46.4711V34.6885Z" fill="#F9DB6D"/>
</svg>
