<svg width="26" height="26" viewBox="0 0 26 26" fill="none" xmlns="http://www.w3.org/2000/svg">
<path d="M8.2 1H3.13333C2.3866 1 2.01323 1 1.72801 1.14532C1.47713 1.27316 1.27316 1.47713 1.14532 1.72801C1 2.01323 1 2.3866 1 3.13333V8.2C1 8.94674 1 9.32011 1.14532 9.60532C1.27316 9.8562 1.47713 10.0602 1.72801 10.188C2.01323 10.3333 2.3866 10.3333 3.13333 10.3333H8.2C8.94674 10.3333 9.32011 10.3333 9.60532 10.188C9.8562 10.0602 10.0602 9.8562 10.188 9.60532C10.3333 9.32011 10.3333 8.94674 10.3333 8.2V3.13333C10.3333 2.3866 10.3333 2.01323 10.188 1.72801C10.0602 1.47713 9.8562 1.27316 9.60532 1.14532C9.32011 1 8.94674 1 8.2 1Z" stroke="#333E96" stroke-width="2" stroke-linecap="round" stroke-linejoin="round"/>
<path d="M22.8667 1H17.8C17.0533 1 16.6799 1 16.3947 1.14532C16.1438 1.27316 15.9398 1.47713 15.812 1.72801C15.6667 2.01323 15.6667 2.3866 15.6667 3.13333V8.2C15.6667 8.94674 15.6667 9.32011 15.812 9.60532C15.9398 9.8562 16.1438 10.0602 16.3947 10.188C16.6799 10.3333 17.0533 10.3333 17.8 10.3333H22.8667C23.6134 10.3333 23.9868 10.3333 24.272 10.188C24.5229 10.0602 24.7268 9.8562 24.8547 9.60532C25 9.32011 25 8.94674 25 8.2V3.13333C25 2.3866 25 2.01323 24.8547 1.72801C24.7268 1.47713 24.5229 1.27316 24.272 1.14532C23.9868 1 23.6134 1 22.8667 1Z" stroke="#333E96" stroke-width="2" stroke-linecap="round" stroke-linejoin="round"/>
<path d="M22.8667 15.6667H17.8C17.0533 15.6667 16.6799 15.6667 16.3947 15.812C16.1438 15.9398 15.9398 16.1438 15.812 16.3947C15.6667 16.6799 15.6667 17.0533 15.6667 17.8V22.8667C15.6667 23.6134 15.6667 23.9868 15.812 24.272C15.9398 24.5229 16.1438 24.7268 16.3947 24.8547C16.6799 25 17.0533 25 17.8 25H22.8667C23.6134 25 23.9868 25 24.272 24.8547C24.5229 24.7268 24.7268 24.5229 24.8547 24.272C25 23.9868 25 23.6134 25 22.8667V17.8C25 17.0533 25 16.6799 24.8547 16.3947C24.7268 16.1438 24.5229 15.9398 24.272 15.812C23.9868 15.6667 23.6134 15.6667 22.8667 15.6667Z" stroke="#333E96" stroke-width="2" stroke-linecap="round" stroke-linejoin="round"/>
<path d="M8.2 15.6667H3.13333C2.3866 15.6667 2.01323 15.6667 1.72801 15.812C1.47713 15.9398 1.27316 16.1438 1.14532 16.3947C1 16.6799 1 17.0533 1 17.8V22.8667C1 23.6134 1 23.9868 1.14532 24.272C1.27316 24.5229 1.47713 24.7268 1.72801 24.8547C2.01323 25 2.3866 25 3.13333 25H8.2C8.94674 25 9.32011 25 9.60532 24.8547C9.8562 24.7268 10.0602 24.5229 10.188 24.272C10.3333 23.9868 10.3333 23.6134 10.3333 22.8667V17.8C10.3333 17.0533 10.3333 16.6799 10.188 16.3947C10.0602 16.1438 9.8562 15.9398 9.60532 15.812C9.32011 15.6667 8.94674 15.6667 8.2 15.6667Z" stroke="#333E96" stroke-width="2" stroke-linecap="round" stroke-linejoin="round"/>
</svg>
