<svg width="40" height="40" viewBox="0 0 40 40" fill="none" xmlns="http://www.w3.org/2000/svg">
<path d="M36.5528 25.4614C36.5528 25.4614 38.6318 21.8197 38.6318 16.3572C38.6318 9.2039 33.3694 0.75 19.791 0.75C6.21264 0.75 0.950213 9.2039 0.950213 16.3572C0.950213 21.8197 2.96423 25.4614 2.96423 25.4614C0.625372 28.1276 -0.80393 33.5251 1.21009 37.0367C2.05467 38.4674 10.3706 43.5397 11.1502 34.5006H28.3019C29.1464 43.4747 37.4624 38.4674 38.242 37.0367C40.321 33.5251 38.8917 28.1276 36.5528 25.4614Z" fill="#594640"/>
<path d="M19.7908 3.35205C9.85066 3.35205 2.57422 8.55445 2.57422 15.0574C2.57422 15.0574 5.23792 5.30295 19.7908 5.30295C34.3437 5.30295 36.3577 15.0574 36.3577 15.0574C36.3577 8.55445 29.731 3.35205 19.7908 3.35205Z" fill="#C28FEF"/>
<path d="M36.2285 26.7634C40.2565 26.7634 40.2565 20.9107 36.2285 20.9107V18.9598C36.2285 18.9598 13.4896 18.3745 8.29214 10.5059C9.5915 18.4395 3.28958 20.9107 3.28958 20.9107C-0.738454 20.9107 -0.738454 26.7634 3.28958 26.7634C3.28958 31.3155 8.03226 38.4688 19.7265 38.4688C31.4208 38.4688 36.2285 31.3155 36.2285 26.7634Z" fill="#FFE1BD"/>
<path d="M27.9104 27.4095C30.2427 27.4095 32.1334 25.517 32.1334 23.1825C32.1334 20.848 30.2427 18.9556 27.9104 18.9556C25.5782 18.9556 23.6875 20.848 23.6875 23.1825C23.6875 25.517 25.5782 27.4095 27.9104 27.4095Z" fill="white"/>
<path d="M11.6692 27.4095C14.0015 27.4095 15.8922 25.517 15.8922 23.1825C15.8922 20.848 14.0015 18.9556 11.6692 18.9556C9.33696 18.9556 7.44629 20.848 7.44629 23.1825C7.44629 25.517 9.33696 27.4095 11.6692 27.4095Z" fill="white"/>
<path d="M27.9128 26.1125C29.5275 26.1125 30.8364 24.8023 30.8364 23.1861C30.8364 21.5699 29.5275 20.2598 27.9128 20.2598C26.2982 20.2598 24.9893 21.5699 24.9893 23.1861C24.9893 24.8023 26.2982 26.1125 27.9128 26.1125Z" fill="#664E27"/>
<path d="M27.913 24.1594C28.4512 24.1594 28.8875 23.7227 28.8875 23.1839C28.8875 22.6452 28.4512 22.2085 27.913 22.2085C27.3748 22.2085 26.9385 22.6452 26.9385 23.1839C26.9385 23.7227 27.3748 24.1594 27.913 24.1594Z" fill="#231F20"/>
<path d="M11.6697 26.1125C13.2843 26.1125 14.5932 24.8023 14.5932 23.1861C14.5932 21.5699 13.2843 20.2598 11.6697 20.2598C10.055 20.2598 8.74609 21.5699 8.74609 23.1861C8.74609 24.8023 10.055 26.1125 11.6697 26.1125Z" fill="#664E27"/>
<path d="M11.6718 24.1594C12.21 24.1594 12.6463 23.7227 12.6463 23.1839C12.6463 22.6452 12.21 22.2085 11.6718 22.2085C11.1336 22.2085 10.6973 22.6452 10.6973 23.1839C10.6973 23.7227 11.1336 24.1594 11.6718 24.1594Z" fill="#231F20"/>
<path d="M25.0545 30.7283C21.6762 33.0694 17.908 33.0694 14.5297 30.7283C14.1399 30.4682 13.7501 30.9234 14.0099 31.3786C15.0494 33.0694 17.1284 34.5651 19.7921 34.5651C22.4558 34.5651 24.5348 33.0694 25.5743 31.3786C25.8341 30.9234 25.4443 30.4682 25.0545 30.7283Z" fill="#664E27"/>
</svg>
