<svg width="64" height="42" viewBox="0 0 64 42" fill="none" xmlns="http://www.w3.org/2000/svg">
<path d="M58.2295 15.1138L54.2464 8.05711C53.5482 6.81429 52.4701 5.81947 51.165 5.21382L41.958 0.920889C40.1355 0.067443 38.0869 -0.201854 36.1006 0.150915L10.4313 4.67122C10.1233 4.7255 9.84453 4.88465 9.64375 5.12083C9.44298 5.35701 9.33298 5.65517 9.33301 5.96312V15.7511C9.33301 16.0991 9.47347 16.4329 9.7235 16.6791C9.97353 16.9252 10.3126 17.0635 10.6663 17.0635H57.0641C57.2963 17.0635 57.5244 17.0038 57.726 16.8904C57.9275 16.7769 58.0954 16.6136 58.2132 16.4167C58.3309 16.2197 58.3943 15.9959 58.3972 15.7674C58.4001 15.5389 58.3423 15.3136 58.2295 15.1138Z" fill="#FFD188"/>
<path d="M38.9873 10.9088L46.6226 12.7876C47.5138 13.0069 48.3012 13.5215 48.8524 14.2449L51.9998 18.3763L27.1328 14.4391L35.7463 11.1144C36.7787 10.7158 37.9115 10.644 38.9873 10.9088Z" fill="#F9A06F"/>
<path d="M59.9996 14.4385H25.333C23.1239 14.4385 21.333 16.2012 21.333 18.3757V38.0618C21.333 40.2363 23.1239 41.9991 25.333 41.9991H59.9996C62.2088 41.9991 63.9996 40.2363 63.9996 38.0618V18.3757C63.9996 16.2012 62.2088 14.4385 59.9996 14.4385Z" fill="#333E96"/>
<path d="M22.7634 15.3633C22.3156 15.732 21.9554 16.1929 21.7083 16.7136C21.4612 17.2342 21.3331 17.8018 21.333 18.3765V38.0626C21.3342 39.1065 21.756 40.1073 22.5059 40.8454C23.2558 41.5835 24.2725 41.9987 25.333 41.9998H59.9998C60.9403 42.0003 61.8506 41.6729 62.5694 41.0758L22.7634 15.3633Z" fill="#202B81"/>
<path d="M63.9996 32.8125H21.333V37.4059H63.9996V32.8125Z" fill="#1A1A1A"/>
<path d="M49.7775 32.8125H21.333V37.4059H56.8886L49.7775 32.8125Z" fill="#1A1A1A"/>
<path d="M58.6666 18.376H53.3334C52.597 18.376 52 18.9636 52 19.6884V21.0008C52 21.7256 52.597 22.3132 53.3334 22.3132H58.6666C59.403 22.3132 60 21.7256 60 21.0008V19.6884C60 18.9636 59.403 18.376 58.6666 18.376Z" fill="#F9DB6D"/>
<path d="M42.1194 18.4211L30.6053 17.3138C29.8308 17.2394 29.0951 16.9442 28.4885 16.4644C27.8819 15.9846 27.4306 15.3411 27.19 14.6126L25.6979 10.0955C25.6107 9.8321 25.4412 9.60259 25.2134 9.43984C24.9857 9.27709 24.7114 9.18945 24.43 9.18945H10.673C10.3195 9.18945 9.98045 9.32762 9.73039 9.57359C9.48034 9.81956 9.33974 10.1532 9.33951 10.5012L9.33301 21.0523C9.33284 21.3031 9.40568 21.5486 9.54289 21.7599C9.68011 21.9712 9.87596 22.1393 10.1073 22.2444L18.0698 25.8624C19.7066 26.6075 21.4889 26.9921 23.2924 26.9895H41.5061C42.1057 26.9889 42.6988 26.8671 43.2486 26.6315C43.7984 26.3959 44.2931 26.0517 44.7022 25.6202C45.1112 25.1886 45.4258 24.679 45.6265 24.1228C45.8271 23.5667 45.9095 22.9759 45.8686 22.387C45.7303 20.3869 44.1234 18.7798 42.1194 18.4211Z" fill="#FFD188"/>
<path d="M41.5064 24.3651H23.2929C21.4894 24.3677 19.7071 23.9831 18.0703 23.2379L10.1078 19.6206C9.87836 19.5162 9.68388 19.3497 9.54699 19.1405C9.4101 18.9314 9.33645 18.6882 9.33463 18.4395L9.33301 21.0533C9.33297 21.3041 9.40595 21.5497 9.54329 21.761C9.68064 21.9723 9.87661 22.1404 10.108 22.2455L18.0705 25.8628C19.7074 26.6079 21.4897 26.9926 23.2931 26.99H41.5064C42.1948 26.9954 42.8747 26.8394 43.4898 26.535C44.1048 26.2305 44.6375 25.7864 45.0436 25.2392C45.4498 24.692 45.7178 24.0575 45.8255 23.3882C45.9332 22.7189 45.8776 22.034 45.6631 21.39C45.3773 22.2539 44.8214 23.0067 44.0749 23.541C43.3283 24.0753 42.4294 24.3637 41.5064 24.3651Z" fill="#F9A06F"/>
<path d="M8 1.52344H4C1.79086 1.52344 0 3.28619 0 5.46066V22.5681C0 24.7426 1.79086 26.5054 4 26.5054H8C10.2091 26.5054 12 24.7426 12 22.5681V5.46066C12 3.28619 10.2091 1.52344 8 1.52344Z" fill="#333E96"/>
<path d="M8 22.5691H4C2.93949 22.5679 1.92275 22.1527 1.17285 21.4146C0.422957 20.6765 0.00115803 19.6757 0 18.6318L0 22.5691C0.00115803 23.6129 0.422957 24.6137 1.17285 25.3518C1.92275 26.09 2.93949 26.5051 4 26.5063H8C9.06051 26.5051 10.0773 26.09 10.8271 25.3518C11.577 24.6137 11.9988 23.6129 12 22.5691V18.6318C11.9988 19.6757 11.577 20.6765 10.8271 21.4146C10.0773 22.1527 9.06051 22.5679 8 22.5691Z" fill="#333E96"/>
</svg>
