<svg width="26" height="26" viewBox="0 0 26 26" fill="none" xmlns="http://www.w3.org/2000/svg">
<path d="M7.66666 19.6667L0.999999 13M0.999999 13L7.66666 6.33334M0.999999 13H17M13 19.6667C13 20.0608 13 20.2578 13.0146 20.4285C13.1669 22.2026 14.4735 23.6625 16.22 24.0097C16.388 24.0431 16.584 24.0649 16.9755 24.1084L18.3374 24.2597C20.3834 24.487 21.4064 24.6007 22.2191 24.3406C23.3028 23.9939 24.1874 23.202 24.6518 22.1633C25 21.3843 25 20.355 25 18.2964V7.7036C25 5.64502 25 4.61573 24.6518 3.83669C24.1874 2.79798 23.3028 2.00614 22.2191 1.65937C21.4064 1.39929 20.3834 1.51296 18.3374 1.74029L16.9755 1.89161C16.5838 1.93513 16.388 1.95689 16.22 1.9903C14.4735 2.33754 13.1669 3.79739 13.0146 5.57148C13 5.74218 13 5.93923 13 6.33334" stroke="#939094" stroke-width="2" stroke-linecap="round" stroke-linejoin="round"/>
</svg>
