<svg width="56" height="56" viewBox="0 0 56 56" fill="none" xmlns="http://www.w3.org/2000/svg">
<path d="M38.5004 0H17.5003C14.2786 0 11.667 2.61166 11.667 5.8333V50.1667C11.667 53.3883 14.2786 56 17.5003 56H38.5004C41.722 56 44.3337 53.3883 44.3337 50.1667V5.8333C44.3337 2.61166 41.722 0 38.5004 0Z" fill="#1A1A1A"/>
<path d="M16.3336 50.1667V5.8333C16.3354 4.28673 16.9505 2.80402 18.0441 1.71044C19.1377 0.616869 20.6204 0.0017369 22.167 0L17.5003 0C15.9537 0.00176584 14.471 0.616911 13.3775 1.71048C12.2839 2.80406 11.6688 4.28675 11.667 5.8333V50.1667C11.6688 51.7132 12.2839 53.1959 13.3775 54.2895C14.471 55.3831 15.9537 55.9982 17.5003 56H22.167C20.6204 55.9983 19.1377 55.3831 18.0441 54.2896C16.9505 53.196 16.3354 51.7133 16.3336 50.1667Z" fill="#F7F7F7" fill-opacity="0.1"/>
<path d="M28.0003 53.0833C28.8057 53.0833 29.4586 52.4304 29.4586 51.625C29.4586 50.8197 28.8057 50.1667 28.0003 50.1667C27.1949 50.1667 26.542 50.8197 26.542 51.625C26.542 52.4304 27.1949 53.0833 28.0003 53.0833Z" fill="#EAEFF0"/>
<path d="M40.8333 8.16675H15.1667C14.5224 8.16675 14 8.6891 14 9.33345V45.5C14 46.1444 14.5224 46.6667 15.1667 46.6667H40.8333C41.4776 46.6667 42 46.1444 42 45.5V9.33345C42 8.6891 41.4776 8.16675 40.8333 8.16675Z" fill="#EAEFF0"/>
<path d="M15.1667 8.16675C14.8573 8.16675 14.5606 8.28965 14.3418 8.50843C14.123 8.7272 14 9.02393 14 9.33334V45.5C14 45.8095 14.1229 46.1062 14.3417 46.325C14.5605 46.5438 14.8573 46.6667 15.1667 46.6667H16.3334V8.16675H15.1667Z" fill="#D9E1E2"/>
<path d="M46.667 18.6667H25.667C23.734 18.6667 22.167 20.2338 22.167 22.1667V35C22.167 36.933 23.734 38.5 25.667 38.5H46.667C48.6 38.5 50.167 36.933 50.167 35V22.1667C50.167 20.2338 48.6 18.6667 46.667 18.6667Z" fill="#333E96"/>
<path d="M25.667 35V22.1667C25.668 21.2388 26.0371 20.3492 26.6932 19.693C27.3494 19.0368 28.239 18.6678 29.167 18.6667H25.667C24.739 18.6678 23.8494 19.0368 23.1932 19.693C22.5371 20.3492 22.168 21.2388 22.167 22.1667V35C22.168 35.928 22.5371 36.8176 23.1932 37.4738C23.8494 38.13 24.739 38.499 25.667 38.5H29.167C28.239 38.499 27.3494 38.13 26.6932 37.4738C26.0371 36.8176 25.668 35.928 25.667 35Z" fill="#1A1A1A"/>
<path d="M50.167 23.3333H22.167V25.6665H50.167V23.3333Z" fill="#2D4A60"/>
<path d="M25.667 23.3333H22.167V25.6665H25.667V23.3333Z" fill="#263F52"/>
<path d="M30.3331 35.0001H26.8331C26.5257 34.9971 26.2318 34.8729 26.0155 34.6544C25.7991 34.436 25.6777 34.1409 25.6777 33.8335C25.6777 33.526 25.7991 33.2309 26.0155 33.0125C26.2318 32.794 26.5257 32.6698 26.8331 32.6668H30.3331C30.4873 32.6653 30.6402 32.6944 30.7831 32.7523C30.9259 32.8103 31.0559 32.896 31.1654 33.0045C31.275 33.113 31.3619 33.2421 31.4212 33.3844C31.4806 33.5267 31.5111 33.6793 31.5111 33.8335C31.5111 33.9876 31.4806 34.1403 31.4212 34.2825C31.3619 34.4248 31.275 34.5539 31.1654 34.6624C31.0559 34.7709 30.9259 34.8566 30.7831 34.9146C30.6402 34.9725 30.4873 35.0016 30.3331 35.0001Z" fill="#F9DB6D"/>
</svg>
