<svg width="47" height="42" viewBox="0 0 47 42" fill="none" xmlns="http://www.w3.org/2000/svg">
<path d="M41.991 0.24836L4.18009 3.40596C2.45949 3.55177 1.0589 4.7203 0.610151 6.38843C0.164759 8.05851 0.79625 9.76134 2.22133 10.7321L16.6427 20.5488C16.8382 20.6828 16.9699 20.8851 17.0132 21.118L20.1522 38.2922C20.4625 39.9845 21.7647 41.2528 23.4673 41.5208C24.4845 41.6794 25.4773 41.4581 26.289 40.9298C26.8374 40.5729 27.2997 40.0772 27.6354 39.467L45.8377 6.15868C46.5489 4.85857 46.4898 3.28675 45.6854 2.05083C44.881 0.814905 43.4677 0.124499 41.991 0.24836ZM43.0865 4.66661L24.8818 37.9744C24.6119 38.4713 24.1529 38.4571 23.9667 38.427C23.7815 38.3983 23.339 38.2719 23.2385 37.7176L20.103 20.5681L28.2038 15.2958C28.9307 14.8227 29.1382 13.8524 28.6673 13.1289C28.1964 12.4054 27.2252 12.2024 26.4984 12.6754L18.3976 17.9477L3.9973 8.14426C3.52931 7.82506 3.59188 7.36779 3.64118 7.18442C3.67424 7.05928 3.76637 6.81695 4.00329 6.66275C4.11152 6.59232 4.25237 6.54002 4.42947 6.52423L42.2419 3.36568C42.716 3.32648 42.9672 3.62927 43.0535 3.76175C43.1397 3.89422 43.3143 4.24892 43.0865 4.66661Z" fill="#333E96"/>
</svg>
