<svg width="114" height="50" viewBox="0 0 114 50" fill="none" xmlns="http://www.w3.org/2000/svg">
<g opacity="0.19" filter="url(#filter0_b_119_2073)">
<path d="M0.616211 24.9997C0.616211 11.3432 11.687 0.272461 25.3435 0.272461H88.4274C102.084 0.272461 113.155 11.3432 113.155 24.9997C113.155 38.6562 102.084 49.727 88.4274 49.727H25.3435C11.687 49.727 0.616211 38.6562 0.616211 24.9997Z" fill="white"/>
</g>
<path d="M50.9166 16.561L47.8711 33.4715H52.7418L55.7898 16.561H50.9166Z" fill="#EFEFEF"/>
<path d="M43.7814 16.5858L39.0109 28.1183L38.5023 26.377C37.5614 24.2789 34.8906 21.2657 31.7549 19.3667L36.117 33.469L41.2709 33.4607L48.9416 16.5823L43.7814 16.5858Z" fill="#EFEFEF"/>
<path d="M36.6603 17.7974C36.3772 16.7673 35.5566 16.4603 34.5381 16.4236H26.9865L26.9238 16.7602C32.8005 18.1092 36.6891 21.3595 38.3027 25.2676L36.6603 17.7974Z" fill="#EFEFEF"/>
<path d="M65.6618 19.8053C67.2553 19.7816 68.4104 20.1112 69.3074 20.4526L69.7471 20.6481L70.406 16.983C69.4414 16.6404 67.9293 16.2729 66.0427 16.2729C61.2295 16.2729 57.8371 18.5666 57.8107 21.8537C57.7794 24.2825 60.2273 25.6385 62.0764 26.4482C63.9744 27.2779 64.6108 27.8054 64.602 28.5463C64.587 29.6783 63.0886 30.1975 61.6893 30.1975C59.7388 30.1975 58.7027 29.9426 57.1029 29.312L56.4753 29.0417L55.79 32.8266C56.9301 33.2996 59.0334 33.7062 61.217 33.7275C66.3371 33.7275 69.6644 31.4611 69.6995 27.9488C69.7208 26.0273 68.4217 24.561 65.6067 23.3579C63.9029 22.5732 62.8606 22.0516 62.8707 21.2598C62.8707 20.5569 63.7551 19.8053 65.6618 19.8053Z" fill="#EFEFEF"/>
<path d="M82.9048 16.5852H79.1415C77.9727 16.5852 77.1033 16.8863 76.5896 17.9887L69.3574 33.4862H74.4725C74.4725 33.4862 75.3068 31.4023 75.496 30.9459C76.056 30.9459 81.0257 30.9531 81.7335 30.9531C81.8788 31.5434 82.3273 33.4862 82.3273 33.4862H86.846L82.9048 16.5852ZM76.8978 27.4847C77.2987 26.5139 78.8383 22.7586 78.8383 22.7586C78.812 22.8048 79.2355 21.7807 79.4873 21.1441L79.8155 22.6021C79.8155 22.6021 80.7488 26.6395 80.9442 27.4847H76.8978Z" fill="#EFEFEF"/>
<defs>
<filter id="filter0_b_119_2073" x="-3.38379" y="-3.72754" width="120.538" height="57.4546" filterUnits="userSpaceOnUse" color-interpolation-filters="sRGB">
<feFlood flood-opacity="0" result="BackgroundImageFix"/>
<feGaussianBlur in="BackgroundImageFix" stdDeviation="2"/>
<feComposite in2="SourceAlpha" operator="in" result="effect1_backgroundBlur_119_2073"/>
<feBlend mode="normal" in="SourceGraphic" in2="effect1_backgroundBlur_119_2073" result="shape"/>
</filter>
</defs>
</svg>
