<svg width="312" height="172" viewBox="0 0 312 172" fill="none" xmlns="http://www.w3.org/2000/svg">
<g filter="url(#filter0_d_234_1429)">
<rect x="48" y="48" width="216" height="76" rx="24" fill="#1A1A1A" shape-rendering="crispEdges"/>
<path d="M97.7279 85.3268L81.216 101.773C80.4267 101.029 80 100.009 80 98.9041V73.1094C80 71.9833 80.448 70.9634 81.2587 70.1985L97.7279 85.3268Z" fill="#2196F3"/>
<path d="M112 86.0029C112 87.4902 111.19 88.8076 109.846 89.5512L105.152 92.1435L99.3285 86.789L97.7285 85.323L103.894 79.1824L109.846 82.4545C111.19 83.1982 112 84.5155 112 86.0029Z" fill="#FFC107"/>
<path d="M97.729 85.3245L81.2598 70.1961C81.4731 69.9836 81.7504 69.7924 82.0278 69.6224C83.3718 68.815 84.9931 68.7938 86.3797 69.5587L103.894 79.1839L97.729 85.3245Z" fill="#4CAF50"/>
<path d="M105.152 92.142L86.3785 102.447C85.7171 102.83 84.9705 103 84.2451 103C83.4771 103 82.7091 102.808 82.0265 102.383C81.7278 102.213 81.4505 102.001 81.2158 101.767L97.7278 85.3215L99.3278 86.7876L105.152 92.142Z" fill="#F44336"/>
<path d="M134.04 79.1C135.52 79.1 136.813 79.3867 137.92 79.96C139.04 80.52 139.9 81.3333 140.5 82.4C141.113 83.4533 141.42 84.6867 141.42 86.1C141.42 87.5133 141.113 88.74 140.5 89.78C139.9 90.82 139.04 91.62 137.92 92.18C136.813 92.7267 135.52 93 134.04 93H129.5V79.1H134.04ZM134.04 91.14C135.667 91.14 136.913 90.7 137.78 89.82C138.647 88.94 139.08 87.7 139.08 86.1C139.08 84.4867 138.647 83.2267 137.78 82.32C136.913 81.4133 135.667 80.96 134.04 80.96H131.78V91.14H134.04ZM148.46 93.18C147.42 93.18 146.48 92.9467 145.64 92.48C144.8 92 144.14 91.3333 143.66 90.48C143.18 89.6133 142.94 88.6133 142.94 87.48C142.94 86.36 143.186 85.3667 143.68 84.5C144.173 83.6333 144.846 82.9667 145.7 82.5C146.553 82.0333 147.506 81.8 148.56 81.8C149.613 81.8 150.566 82.0333 151.42 82.5C152.273 82.9667 152.946 83.6333 153.44 84.5C153.933 85.3667 154.18 86.36 154.18 87.48C154.18 88.6 153.926 89.5933 153.42 90.46C152.913 91.3267 152.22 92 151.34 92.48C150.473 92.9467 149.513 93.18 148.46 93.18ZM148.46 91.2C149.046 91.2 149.593 91.06 150.1 90.78C150.62 90.5 151.04 90.08 151.36 89.52C151.68 88.96 151.84 88.28 151.84 87.48C151.84 86.68 151.686 86.0067 151.38 85.46C151.073 84.9 150.666 84.48 150.16 84.2C149.653 83.92 149.106 83.78 148.52 83.78C147.933 83.78 147.386 83.92 146.88 84.2C146.386 84.48 145.993 84.9 145.7 85.46C145.406 86.0067 145.26 86.68 145.26 87.48C145.26 88.6667 145.56 89.5867 146.16 90.24C146.773 90.88 147.54 91.2 148.46 91.2ZM171.234 81.98L167.814 93H165.414L163.194 84.86L160.974 93H158.574L155.134 81.98H157.454L159.754 90.84L162.094 81.98H164.474L166.714 90.8L168.994 81.98H171.234ZM178.498 81.8C179.364 81.8 180.138 81.98 180.818 82.34C181.511 82.7 182.051 83.2333 182.438 83.94C182.824 84.6467 183.018 85.5 183.018 86.5V93H180.758V86.84C180.758 85.8533 180.511 85.1 180.018 84.58C179.524 84.0467 178.851 83.78 177.998 83.78C177.144 83.78 176.464 84.0467 175.958 84.58C175.464 85.1 175.218 85.8533 175.218 86.84V93H172.938V81.98H175.218V83.24C175.591 82.7867 176.064 82.4333 176.638 82.18C177.224 81.9267 177.844 81.8 178.498 81.8ZM188.206 78.2V93H185.926V78.2H188.206ZM195.979 93.18C194.939 93.18 193.999 92.9467 193.159 92.48C192.319 92 191.659 91.3333 191.179 90.48C190.699 89.6133 190.459 88.6133 190.459 87.48C190.459 86.36 190.706 85.3667 191.199 84.5C191.693 83.6333 192.366 82.9667 193.219 82.5C194.073 82.0333 195.026 81.8 196.079 81.8C197.133 81.8 198.086 82.0333 198.939 82.5C199.793 82.9667 200.466 83.6333 200.959 84.5C201.453 85.3667 201.699 86.36 201.699 87.48C201.699 88.6 201.446 89.5933 200.939 90.46C200.433 91.3267 199.739 92 198.859 92.48C197.993 92.9467 197.033 93.18 195.979 93.18ZM195.979 91.2C196.566 91.2 197.113 91.06 197.619 90.78C198.139 90.5 198.559 90.08 198.879 89.52C199.199 88.96 199.359 88.28 199.359 87.48C199.359 86.68 199.206 86.0067 198.899 85.46C198.593 84.9 198.186 84.48 197.679 84.2C197.173 83.92 196.626 83.78 196.039 83.78C195.453 83.78 194.906 83.92 194.399 84.2C193.906 84.48 193.513 84.9 193.219 85.46C192.926 86.0067 192.779 86.68 192.779 87.48C192.779 88.6667 193.079 89.5867 193.679 90.24C194.293 90.88 195.059 91.2 195.979 91.2ZM203.193 87.44C203.193 86.3333 203.42 85.3533 203.873 84.5C204.34 83.6467 204.966 82.9867 205.753 82.52C206.553 82.04 207.433 81.8 208.393 81.8C209.26 81.8 210.013 81.9733 210.653 82.32C211.306 82.6533 211.826 83.0733 212.213 83.58V81.98H214.513V93H212.213V91.36C211.826 91.88 211.3 92.3133 210.633 92.66C209.966 93.0067 209.206 93.18 208.353 93.18C207.406 93.18 206.54 92.94 205.753 92.46C204.966 91.9667 204.34 91.2867 203.873 90.42C203.42 89.54 203.193 88.5467 203.193 87.44ZM212.213 87.48C212.213 86.72 212.053 86.06 211.733 85.5C211.426 84.94 211.02 84.5133 210.513 84.22C210.006 83.9267 209.46 83.78 208.873 83.78C208.286 83.78 207.74 83.9267 207.233 84.22C206.726 84.5 206.313 84.92 205.993 85.48C205.686 86.0267 205.533 86.68 205.533 87.44C205.533 88.2 205.686 88.8667 205.993 89.44C206.313 90.0133 206.726 90.4533 207.233 90.76C207.753 91.0533 208.3 91.2 208.873 91.2C209.46 91.2 210.006 91.0533 210.513 90.76C211.02 90.4667 211.426 90.04 211.733 89.48C212.053 88.9067 212.213 88.24 212.213 87.48ZM216.748 87.44C216.748 86.3333 216.974 85.3533 217.428 84.5C217.894 83.6467 218.521 82.9867 219.308 82.52C220.108 82.04 220.994 81.8 221.968 81.8C222.688 81.8 223.394 81.96 224.088 82.28C224.794 82.5867 225.354 83 225.768 83.52V78.2H228.068V93H225.768V91.34C225.394 91.8733 224.874 92.3133 224.208 92.66C223.554 93.0067 222.801 93.18 221.948 93.18C220.988 93.18 220.108 92.94 219.308 92.46C218.521 91.9667 217.894 91.2867 217.428 90.42C216.974 89.54 216.748 88.5467 216.748 87.44ZM225.768 87.48C225.768 86.72 225.608 86.06 225.288 85.5C224.981 84.94 224.574 84.5133 224.068 84.22C223.561 83.9267 223.014 83.78 222.428 83.78C221.841 83.78 221.294 83.9267 220.788 84.22C220.281 84.5 219.868 84.92 219.548 85.48C219.241 86.0267 219.088 86.68 219.088 87.44C219.088 88.2 219.241 88.8667 219.548 89.44C219.868 90.0133 220.281 90.4533 220.788 90.76C221.308 91.0533 221.854 91.2 222.428 91.2C223.014 91.2 223.561 91.0533 224.068 90.76C224.574 90.4667 224.981 90.04 225.288 89.48C225.608 88.9067 225.768 88.24 225.768 87.48Z" fill="#F7F7F7"/>
</g>
<defs>
<filter id="filter0_d_234_1429" x="0" y="0" width="312" height="172" filterUnits="userSpaceOnUse" color-interpolation-filters="sRGB">
<feFlood flood-opacity="0" result="BackgroundImageFix"/>
<feColorMatrix in="SourceAlpha" type="matrix" values="0 0 0 0 0 0 0 0 0 0 0 0 0 0 0 0 0 0 127 0" result="hardAlpha"/>
<feOffset/>
<feGaussianBlur stdDeviation="24"/>
<feComposite in2="hardAlpha" operator="out"/>
<feColorMatrix type="matrix" values="0 0 0 0 0.968627 0 0 0 0 0.968627 0 0 0 0 0.968627 0 0 0 0.05 0"/>
<feBlend mode="normal" in2="BackgroundImageFix" result="effect1_dropShadow_234_1429"/>
<feBlend mode="normal" in="SourceGraphic" in2="effect1_dropShadow_234_1429" result="shape"/>
</filter>
</defs>
</svg>
