<svg width="61" height="54" viewBox="0 0 61 54" fill="none" xmlns="http://www.w3.org/2000/svg">
<path d="M33.68 0.333252C48.4266 0.333252 60.3733 12.3332 60.3733 26.9999C60.3733 41.6666 48.4266 53.6666 33.68 53.6666C24.32 53.6666 16.1333 48.8132 11.36 41.4799L15.5733 38.1466C19.3333 44.2532 26.0267 48.3332 33.7067 48.3332C39.3646 48.3332 44.7908 46.0856 48.7916 42.0848C52.7924 38.0841 55.04 32.6579 55.04 26.9999C55.04 21.342 52.7924 15.9157 48.7916 11.915C44.7908 7.91419 39.3646 5.66658 33.7067 5.66658C22.8267 5.66658 13.8667 13.8266 12.56 24.3332H19.92L9.94666 34.2799L0 24.3332H7.17333C8.50666 10.8666 19.8667 0.333252 33.68 0.333252ZM41.5733 22.3066C42.9066 22.3332 44 23.3999 44 24.7599V37.0532C44 38.3866 42.9067 39.5066 41.5466 39.5066H26.8C25.44 39.5066 24.3467 38.3866 24.3467 37.0532V24.7599C24.3467 23.3999 25.44 22.3332 26.7733 22.3066V19.6132C26.7733 15.5332 30.1067 12.2266 34.16 12.2266C38.24 12.2266 41.5733 15.5332 41.5733 19.6132V22.3066ZM34.16 15.9599C32.16 15.9599 30.5067 17.5866 30.5067 19.6132V22.3066H37.84V19.6132C37.84 17.5866 36.1867 15.9599 34.16 15.9599Z" fill="#333E96"/>
</svg>
